<?xml version="1.0" encoding="UTF-8" standalone="no"?>
<!DOCTYPE svg PUBLIC "-//W3C//DTD SVG 1.1//EN"
 "http://www.w3.org/Graphics/SVG/1.1/DTD/svg11.dtd">
<!-- Generated by graphviz version 2.40.1 (20161225.0304)
 -->
<!-- Title: %0 Pages: 1 -->
<svg width="302pt" height="279pt"
 viewBox="0.00 0.00 301.79 278.80" xmlns="http://www.w3.org/2000/svg" xmlns:xlink="http://www.w3.org/1999/xlink">
<g id="graph0" class="graph" transform="scale(1 1) rotate(0) translate(4 274.8)">
<title>%0</title>
<polygon fill="transparent" stroke="transparent" points="-4,4 -4,-274.8 297.7939,-274.8 297.7939,4 -4,4"/>
<!-- 0 -->
<g id="node1" class="node">
<title>0</title>
<ellipse fill="none" stroke="#FFFFFF" cx="77.4785" cy="-252.8" rx="70.0944" ry="18"/>
<text text-anchor="middle" x="77.4785" y="-248.6" font-family="Times,serif" font-size="14.00" fill="#FFFFFF">bookings_conn</text>
</g>
<!-- 2 -->
<g id="node3" class="node">
<title>2</title>
<ellipse fill="none" stroke="#FFFFFF" cx="125.4785" cy="-164" rx="40.5712" ry="18"/>
<text text-anchor="middle" x="125.4785" y="-159.8" font-family="Times,serif" font-size="14.00" fill="#FFFFFF">product</text>
</g>
<!-- 0&#45;&gt;2 -->
<g id="edge4" class="edge">
<title>0&#45;&gt;2</title>
<path fill="none" stroke="#FFFFFF" d="M32.8045,-238.8968C11.0459,-229.7046 -8.0559,-216.3443 4.1433,-200 13.1765,-187.8975 47.4925,-178.4124 77.3353,-172.2233"/>
<polygon fill="#FFFFFF" stroke="#FFFFFF" points="78.117,-175.6364 87.2414,-170.2517 76.7505,-168.7711 78.117,-175.6364"/>
<text text-anchor="middle" x="30.1461" y="-204.2" font-family="Times,serif" font-size="14.00" fill="#FFFFFF">bookings</text>
</g>
<!-- 0&#45;&gt;2 -->
<g id="edge5" class="edge">
<title>0&#45;&gt;2</title>
<path fill="none" stroke="#FFFFFF" d="M74.1143,-234.7473C73.0123,-224.0842 73.2175,-210.6346 78.6005,-200 81.5809,-194.1119 86.0224,-188.9102 91.0027,-184.4216"/>
<polygon fill="#FFFFFF" stroke="#FFFFFF" points="93.4859,-186.9191 99.14,-177.959 89.1325,-181.4375 93.4859,-186.9191"/>
<text text-anchor="middle" x="116.4175" y="-204.2" font-family="Times,serif" font-size="14.00" fill="#FFFFFF">ticket_flights</text>
</g>
<!-- 0&#45;&gt;2 -->
<g id="edge6" class="edge">
<title>0&#45;&gt;2</title>
<path fill="none" stroke="#FFFFFF" d="M125.1923,-239.5997C135.9657,-234.2976 146.0941,-226.9463 152.4785,-216.8 158.0465,-207.9511 154.9489,-197.8146 149.1843,-188.8042"/>
<polygon fill="#FFFFFF" stroke="#FFFFFF" points="151.8301,-186.4981 143.036,-180.5893 146.2259,-190.6925 151.8301,-186.4981"/>
<text text-anchor="middle" x="172.7513" y="-204.2" font-family="Times,serif" font-size="14.00" fill="#FFFFFF">tickets</text>
</g>
<!-- 1 -->
<g id="node2" class="node">
<title>1</title>
<ellipse fill="none" stroke="#FFFFFF" cx="234.4785" cy="-252.8" rx="59.1314" ry="18"/>
<text text-anchor="middle" x="234.4785" y="-248.6" font-family="Times,serif" font-size="14.00" fill="#FFFFFF">flights_conn</text>
</g>
<!-- 1&#45;&gt;2 -->
<g id="edge3" class="edge">
<title>1&#45;&gt;2</title>
<path fill="none" stroke="#FFFFFF" d="M224.2741,-234.9959C217.251,-223.8965 207.1108,-209.8938 195.4785,-200 186.4611,-192.3303 175.5313,-185.7292 165.0158,-180.3515"/>
<polygon fill="#FFFFFF" stroke="#FFFFFF" points="166.4644,-177.1642 155.94,-175.9446 163.4068,-183.4611 166.4644,-177.1642"/>
<text text-anchor="middle" x="227.367" y="-204.2" font-family="Times,serif" font-size="14.00" fill="#FFFFFF">flights</text>
</g>
<!-- 3 -->
<g id="node4" class="node">
<title>3</title>
<ellipse fill="none" stroke="#FFFFFF" cx="125.4785" cy="-91" rx="50.38" ry="18"/>
<text text-anchor="middle" x="125.4785" y="-86.8" font-family="Times,serif" font-size="14.00" fill="#FFFFFF">projection</text>
</g>
<!-- 2&#45;&gt;3 -->
<g id="edge1" class="edge">
<title>2&#45;&gt;3</title>
<path fill="none" stroke="#FFFFFF" d="M125.4785,-145.9551C125.4785,-137.8828 125.4785,-128.1764 125.4785,-119.1817"/>
<polygon fill="#FFFFFF" stroke="#FFFFFF" points="128.9786,-119.0903 125.4785,-109.0904 121.9786,-119.0904 128.9786,-119.0903"/>
</g>
<!-- 4 -->
<g id="node5" class="node">
<title>4</title>
<ellipse fill="none" stroke="#FFFFFF" cx="125.4785" cy="-18" rx="76.4671" ry="18"/>
<text text-anchor="middle" x="125.4785" y="-13.8" font-family="Times,serif" font-size="14.00" fill="#FFFFFF">bookings_details</text>
</g>
<!-- 3&#45;&gt;4 -->
<g id="edge2" class="edge">
<title>3&#45;&gt;4</title>
<path fill="none" stroke="#FFFFFF" d="M125.4785,-72.9551C125.4785,-64.8828 125.4785,-55.1764 125.4785,-46.1817"/>
<polygon fill="#FFFFFF" stroke="#FFFFFF" points="128.9786,-46.0903 125.4785,-36.0904 121.9786,-46.0904 128.9786,-46.0903"/>
</g>
</g>
</svg>