<svg width="20" height="20" viewBox="0 0 20 20" fill="none" xmlns="http://www.w3.org/2000/svg">
<g id="tabler-icon-copy">
<path id="Vector" d="M13.332 6.66634V4.99967C13.332 4.55765 13.1564 4.13372 12.8439 3.82116C12.5313 3.5086 12.1074 3.33301 11.6654 3.33301H4.9987C4.55667 3.33301 4.13275 3.5086 3.82019 3.82116C3.50763 4.13372 3.33203 4.55765 3.33203 4.99967V11.6663C3.33203 12.1084 3.50763 12.5323 3.82019 12.8449C4.13275 13.1574 4.55667 13.333 4.9987 13.333H6.66536M6.66536 8.33301C6.66536 7.89098 6.84096 7.46706 7.15352 7.1545C7.46608 6.84194 7.89 6.66634 8.33203 6.66634H14.9987C15.4407 6.66634 15.8646 6.84194 16.1772 7.1545C16.4898 7.46706 16.6654 7.89098 16.6654 8.33301V14.9997C16.6654 15.4417 16.4898 15.8656 16.1772 16.1782C15.8646 16.4907 15.4407 16.6663 14.9987 16.6663H8.33203C7.89 16.6663 7.46608 16.4907 7.15352 16.1782C6.84096 15.8656 6.66536 15.4417 6.66536 14.9997V8.33301Z" stroke="#797B7C" stroke-width="1.66667" stroke-linecap="round" stroke-linejoin="round"/>
</g>
</svg>
