<svg width="161" height="47" viewBox="0 0 161 47" fill="none" xmlns="http://www.w3.org/2000/svg"><path d="M30.1599 24.0988C30.1599 19.1742 28.2014 15.165 24.3716 12.2015C21.0205 9.63032 17.1037 8.32275 12.7516 8.32275H0V39.7442H12.7516C17.4954 39.7442 21.064 38.6547 24.3716 35.9092C27.9403 32.9022 30.1599 28.8054 30.1599 24.0988ZM19.2797 24.0988C19.1491 29.8513 15.6675 31.3333 10.2709 31.3333V16.8647C16.1027 16.8647 19.2797 19.305 19.2797 24.0988Z" fill="white"/><path d="M62.5924 24.1177C62.9723 13.9461 54.9946 8.06375 47.0168 8.39055C38.97 7.6961 30.9922 13.9052 31.1649 24.036C30.7505 34.371 39.0045 40.0494 47.0168 39.6818C55.0982 40.3762 62.696 34.0443 62.5924 24.1177ZM53.9585 24.077C53.9585 29.1833 50.6086 31.2665 47.0168 31.2665C43.4597 31.2665 39.7988 28.8156 39.7988 24.077C39.7988 18.8483 43.4597 16.8465 47.0168 16.8465C50.7122 16.8465 53.9585 19.6653 53.9585 24.077Z" fill="white"/><path d="M93.9623 8.49011H63.2368V16.6831H75.6836L59.2764 39.8238H91.3077V31.4568H77.9032L93.9623 8.49011Z" fill="white"/><path d="M160.488 39.2815L149.869 26.774C154.134 25.2051 156.354 22.1982 156.354 18.3631C156.354 11.1288 150.696 7.90393 143.863 7.90393H130.415V39.2815H140.73V30.3038L147.301 39.2815H160.488ZM145.343 18.3631C145.299 20.3242 143.602 21.1086 141.73 21.1086H140.73V15.7917H141.73C143.515 15.7046 145.343 16.5763 145.343 18.3631Z" fill="white"/><path fill-rule="evenodd" clip-rule="evenodd" d="M126.993 4.89182C126.126 2.19209 123.233 0.704711 120.537 1.57269L98.2663 8.74231C95.5701 9.61029 94.085 12.507 94.9517 15.2067C95.8185 17.9064 98.7111 19.3938 101.407 18.5258L123.678 11.3562C126.374 10.4882 127.859 7.59156 126.993 4.89182Z" fill="#AF488B"/><path fill-rule="evenodd" clip-rule="evenodd" d="M126.993 18.3426C126.126 15.6429 123.233 14.1555 120.537 15.0235L98.2663 22.1931C95.5701 23.0611 94.085 25.9578 94.9517 28.6575C95.8185 31.3572 98.7111 32.8446 101.407 31.9766L123.678 24.807C126.374 23.939 127.859 21.0424 126.993 18.3426Z" fill="#AF488B"/><path fill-rule="evenodd" clip-rule="evenodd" d="M126.993 31.7934C126.126 29.0937 123.233 27.6063 120.537 28.4743L98.2663 35.6439C95.5701 36.5119 94.085 39.4086 94.9517 42.1083C95.8185 44.808 98.7111 46.2954 101.407 45.4274L123.678 38.2578C126.374 37.3898 127.859 34.4932 126.993 31.7934Z" fill="#AF488B"/></svg>